<svg width="825" height="481" viewBox="0 0 825 481" fill="none" xmlns="http://www.w3.org/2000/svg">
<path d="M474.69 298.692C399.054 524.006 208.97 493.087 123.383 449.962C293.563 241.964 661.788 254.902 825.001 296.701C664.773 271.821 522.791 287.081 474.69 298.692Z" fill="url(#paint0_radial_3578_32)"/>
<path d="M235.857 4.10214L46.731 382.284C-93.5725 154.386 115.389 -5.02774 235.857 0.121326C425.924 4.10214 481.299 159.028 481.631 232.01C266.667 263.06 117.718 364.703 72.6023 410.151L60.6599 400.199C87.5546 372.336 133.31 340.487 171.168 320.577L235.857 159.354L287.18 266.842C299.907 261.865 334.919 249.722 373.154 240.966L235.857 4.10214Z" fill="url(#paint1_radial_3578_32)"/>
<defs>
<radialGradient id="paint0_radial_3578_32" cx="0" cy="0" r="1" gradientUnits="userSpaceOnUse" gradientTransform="translate(311.476 385.274) rotate(-4.83831) scale(507.371 151.018)">
<stop stop-color="#D9D9D9"/>
<stop offset="1" stop-color="#727272"/>
</radialGradient>
<radialGradient id="paint1_radial_3578_32" cx="0" cy="0" r="1" gradientUnits="userSpaceOnUse" gradientTransform="translate(239.821 178.272) rotate(89.7542) scale(231.881 272.293)">
<stop stop-color="#5CC6FF"/>
<stop offset="1" stop-color="#3579C7"/>
</radialGradient>
</defs>
</svg>
